<?xml version="1.0" encoding="utf-8"?>
<!-- Generator: Adobe Illustrator 24.1.0, SVG Export Plug-In . SVG Version: 6.00 Build 0)  -->
<svg version="1.1" id="Layer_1" xmlns="http://www.w3.org/2000/svg" xmlns:xlink="http://www.w3.org/1999/xlink" x="0px" y="0px"
	 viewBox="0 0 380.4 362.6" style="enable-background:new 0 0 380.4 362.6;" xml:space="preserve">
<style type="text/css">
	.st0{fill:#FFFFFF;}
</style>
<g>
	<path class="st0" d="M180.6,362.6h-2.7c-3,0-4.6-2.5-4.6-7.6c2.5-16.2,3.8-26.3,3.8-30.1c0-3.6-0.4-6.6-1.3-9.1s-3-4.5-6.5-5.9
		c-3.4-1.4-6.8-2.5-10.1-3.2c-46.7-6.6-84.9-24.1-114.6-52.6C14.9,225.7,0,192.4,0,154.3c0-28.4,8.6-54.3,25.7-77.7
		s40.1-42,68.9-55.8S155.5,0,190.8,0c34.5,0,66.3,6.9,95.2,20.8c28.9,13.8,51.9,32.4,68.9,55.8s25.5,49.3,25.5,77.7
		c0,34-13.5,65.6-40.4,94.8c-25.6,28.9-62.6,58.7-110.8,89.1C203.2,354.5,186.9,362.6,180.6,362.6z M119.3,203.8
		c2.5,0,3.8-3.6,3.8-10.7c0-6.9-1.3-10.3-3.8-10.3H83.5v-65.9c0-2.3-3.4-3.4-10.3-3.4c-7.1,0-10.7,1.1-10.7,3.4v83
		c0,2.5,1.1,3.8,3.4,3.8h53.4C119.3,203.7,119.3,203.8,119.3,203.8z M145.5,203.8c5.3,0,8.3-0.4,9-1.1c0.6-0.8,1-15.5,1-44.2
		c0-28.4-0.3-43-1-43.8c-0.6-0.8-1.5-1.1-2.5-1.1c-9.9,0-15.3,0.4-16.2,1.1c-0.9,0.8-1.3,15.4-1.3,43.8c0,28.7,0.4,43.4,1.3,44.2
		C136.7,203.4,140,203.8,145.5,203.8z M237,203.8c5.6,0,8.8-0.4,9.5-1.1s1.1-15.5,1.1-44.2c0-28.4-0.4-43-1.1-43.8s-1.7-1.1-2.7-1.1
		c-9.9,0-15.2,0.4-16,1.1s-1.1,17.9-1.1,51.4c-25.4-34.5-38.3-51.9-38.7-52s-0.8-0.2-1.3-0.2l-7.6-0.4c-5.8,0-9,0.4-9.5,1.1
		c-0.5,0.8-0.8,15.4-0.8,43.8c0,28.7,0.3,43.4,0.8,44.2c0.5,0.8,3.7,1.1,9.5,1.1c6.9,0,10.3-1.3,10.3-3.8v-49.5l38.8,52.6
		C229.2,203.5,232.1,203.8,237,203.8z M317.7,203.8c2.3,0,3.4-3.6,3.4-10.7c0-6.9-1.1-10.3-3.4-10.3h-36.9v-13.7
		c25.4,0,38.5-0.4,39.2-1.1s1.1-3.9,1.1-9.5c0-6.9-1.1-10.3-3.4-10.3h-36.9v-14.1h36.9c2.3,0,3.4-3.3,3.4-9.9
		c0-7.1-1.1-10.7-3.4-10.7c-36.8,0-55.5,0.3-56.2,1c-0.6,0.6-1,15.3-1,44s0.3,43.4,1,44.2c0.6,0.8,1.5,1.1,2.5,1.1H317.7z"/>
</g>
</svg>
