<?xml version="1.0" encoding="UTF-8"?>
<svg width="780px" height="423px" viewBox="0 0 780 423" version="1.1" xmlns="http://www.w3.org/2000/svg" xmlns:xlink="http://www.w3.org/1999/xlink">
    <!-- Generator: Sketch 52.6 (67491) - http://www.bohemiancoding.com/sketch -->
    <title>724-logo</title>
    <desc>Created with Sketch.</desc>
    <g id="Page-1" stroke="none" stroke-width="1" fill="none" fill-rule="evenodd">
        <g id="724-logo" transform="translate(-9.000000, -1.000000)" fill="#FFFFFF">
            <path d="M287.512,317.763 L266.16,317.763 C265.76208,317.766748 265.391485,317.966068 265.169,318.296 L235.21,361.026 L205.271,318.296 C205.046102,317.96157 204.669014,317.761583 204.266,317.763 L182.784,317.763 C182.092633,317.79632 181.551662,318.370881 181.56,319.063 L181.56,421.763 C181.540788,422.461557 182.085814,423.046213 182.784,423.076 L201.442,423.076 C201.78241,423.070589 202.106294,422.928301 202.340549,422.681252 C202.574803,422.434203 202.699682,422.103217 202.687,421.763 L202.687,351.026 L231.951,392.615 C232.23627,392.868056 232.579867,393.046382 232.951,393.134 L237.006,393.134 C237.245669,393.012982 237.455666,392.840545 237.621,392.629 L267.614,351.108 L267.614,421.763 C267.602422,422.102917 267.727671,422.433274 267.961691,422.680076 C268.195712,422.926879 268.518948,423.069502 268.859,423.076 L287.51,423.076 C288.211686,423.051547 288.761785,422.464804 288.741,421.763 L288.741,319.07 C288.754658,318.372712 288.208809,317.79222 287.512,317.763 Z" id="Path"></path>
            <path d="M367.421,318.543 C367.250482,318.072354 366.801563,317.760516 366.301,317.765 L345.967,317.765 C345.466476,317.771229 345.018954,318.078259 344.833,318.543 L300.461,421.214 C300.293291,421.627551 300.330349,422.095964 300.561,422.478 C300.781471,422.835465 301.166253,423.058826 301.586,423.073 L321.809,423.073 C322.298264,423.063078 322.73434,422.761997 322.917,422.308 L331.08,403.708 L381.194,403.708 L389.208,422.298 C389.399585,422.751564 389.836936,423.052755 390.329,423.07 L410.729,423.07 C411.433549,423.047147 411.988611,422.461768 411.974,421.757 C411.968256,421.451781 411.862907,421.156804 411.674,420.917 L367.421,318.543 Z M372.621,383.057 L339.681,383.057 L356.145,343.857 L372.621,383.057 Z" id="Shape"></path>
            <path d="M484.633,386.174 C499.879,382.113 508.533,370.182 508.533,353.118 C508.533,336.197 497.02,317.929 471.696,317.765 C463.848,317.765 456.026,317.744 448.177,317.696 C440.328,317.648 432.493,317.62 424.631,317.62 C423.933639,317.648687 423.386908,318.229172 423.4,318.927 L423.4,421.763 C423.37866,422.465014 423.929069,423.052087 424.631,423.076 L443.295,423.076 C443.999549,423.053147 444.554611,422.467768 444.54,421.763 L444.54,388.738 L460.675,388.738 L489.129,422.621 C489.36215,422.902819 489.707272,423.068068 490.073,423.073 L512.238,423.073 C512.57734,423.064365 512.899304,422.921084 513.132868,422.674763 C513.366433,422.428441 513.492406,422.09932 513.483,421.76 L513.483,420.448 C513.491229,420.125075 513.378935,419.810653 513.168,419.566 L484.633,386.174 Z M487.423,353.555 C487.423,360.522 483.293,368.679 471.698,368.679 L444.542,368.679 L444.542,338.426 L471.698,338.426 C483.293,338.426 487.423,346.575 487.423,353.555 Z" id="Shape"></path>
            <path d="M562.601,368.781 L605.209,320.561 C605.427255,320.312704 605.544315,319.991503 605.537,319.661 L605.537,319.061 C605.557797,318.36675 605.014112,317.785985 604.32,317.761 L581.444,317.761 C581.093338,317.763014 580.762443,317.923682 580.544,318.198 L545.527,359.131 L545.527,319.07 C545.537578,318.379654 544.999544,317.804925 544.31,317.77 L525.86,317.77 C525.17188,317.802432 524.637367,318.381488 524.66,319.07 L524.66,421.763 C524.643997,422.096506 524.761658,422.422624 524.98691,422.669087 C525.212162,422.91555 525.526403,423.062006 525.86,423.076 L544.306,423.076 C545.002392,423.04462 545.544483,422.459768 545.523,421.763 L545.523,379.529 L584.329,422.67 C584.550367,422.921894 584.868669,423.067404 585.204,423.07 L607.998,423.07 C608.684386,423.030231 609.209803,422.443604 609.174,421.757 L609.174,420.588 C609.183359,420.252102 609.060975,419.925865 608.833,419.679 L562.601,368.781 Z" id="Path"></path>
            <path d="M693.089,360.174 L639.694,360.174 L639.694,339.15 L692.994,339.15 C693.330073,339.142166 693.649106,339.000467 693.880244,338.756374 C694.111381,338.51228 694.235488,338.186 694.225,337.85 L694.225,319.07 C694.239624,318.372787 693.690975,317.793384 692.994,317.77 L620.331,317.77 C619.646994,317.80769 619.118654,318.385355 619.142,319.07 L619.142,421.763 C619.125412,422.094822 619.241394,422.419631 619.464404,422.665899 C619.687414,422.912167 619.999164,423.059696 620.331,423.076 L692.994,423.076 C693.331866,423.066624 693.651979,422.922639 693.883155,422.676064 C694.11433,422.42949 694.237401,422.100768 694.225,421.763 L694.225,402.699 C694.236319,402.361524 694.112884,402.033414 693.881934,401.78708 C693.650984,401.540746 693.331505,401.396437 692.994,401.386 L639.694,401.386 L639.694,380.828 L693.089,380.828 C693.788743,380.799284 694.336406,380.215139 694.32,379.515 L694.32,361.473 C694.332984,360.776593 693.785099,360.198443 693.089,360.174 Z" id="Path"></path>
            <path d="M786.905,317.763 L707.146,317.763 C706.456456,317.797925 705.918422,318.372654 705.929,319.063 L705.929,336.663 C705.908203,337.35725 706.451888,337.938015 707.146,337.963 L736.668,337.963 L736.668,421.763 C736.655599,422.100768 736.77867,422.42949 737.009845,422.676064 C737.241021,422.922639 737.561134,423.066624 737.899,423.076 L756.167,423.076 C756.500597,423.062006 756.814838,422.91555 757.04009,422.669087 C757.265342,422.422624 757.383003,422.096506 757.367,421.763 L757.367,337.974 L786.901,337.974 C787.588874,337.941041 788.123088,337.362309 788.101,336.674 L788.101,319.074 C788.11964,318.386522 787.591298,317.807377 786.905,317.763 Z" id="Path"></path>
            <rect id="Rectangle" x="9.083" y="148.092" width="224.618" height="45.771" rx="22.8855"></rect>
            <polygon id="Path" points="197.503 152.198 135.775 193.863 206.408 193.863"></polygon>
            <rect id="Rectangle" transform="translate(121.393301, 285.583274) rotate(-52.088000) translate(-121.393301, -285.583274) " x="-46.7856985" y="262.697774" width="336.357999" height="45.7709999" rx="22.8854999"></rect>
            <path d="M634.99,94.689 L634.99,164.537 C634.99,168.237 635.022,168.199 638.79,168.28 C644.754,168.407 650.738,167.824 656.682,168.623 C669.147,170.299 677.52,180.899 676.643,193.81 C675.89,204.881 665.327,214.469 653.743,214.557 C648.55,214.597 643.353,214.678 638.165,214.514 C635.606,214.433 634.922,215.4 634.942,217.829 C635.038,229.253667 635.046667,240.678667 634.968,252.104 C634.901,263.66 627.451,273.021 616.541,275.436 C609.665055,276.902466 602.493872,275.208135 597.001337,270.819376 C591.508803,266.430618 588.273884,259.810049 588.187,252.78 C588.154,241.18 588.187,229.58 588.177,217.986 C588.177,214.567 588.161,214.554 584.691,214.553 C544.357667,214.541 504.024333,214.527667 463.691,214.513 C450.685,214.501 439.777,203.413 440.266,190.744 C440.546,183.488 444.324,177.937 448.987,172.696 C470.089,148.978 491.134333,125.211333 512.123,101.396 C528.927,82.42 545.745,63.457 562.577,44.507 C572.558,33.239 582.611,22.031 592.427,10.62 C599.134,2.82 607.273,-0.567 617.37,1.693 C627.997,4.072 634.95,13.534 634.97,25.366 C635.018,48.472 635.024667,71.5796667 634.99,94.689 Z M588.19,86.4050108 C587.528414,86.3906486 586.906888,86.7220786 586.551,87.28 C578.597667,96.29 570.649333,105.304 562.706,114.322 C547.732667,131.318 532.766,148.318 517.806,165.322 C517.164,166.053 515.813,166.668 516.33,167.793 C516.761,168.73 518.058,168.259 518.964,168.259 C540.848,168.279 562.732,168.281333 584.616,168.266 C588.176,168.266 588.188,168.248 588.189,164.615 C588.189,139.443667 588.189,114.272667 588.189,89.102 C588.185,88.251 588.186,87.396 588.186,86.406 L588.19,86.4050108 Z" id="Shape"></path>
            <path d="M321.885,229.379 L324.951,229.379 C355.501,229.373 386.051333,229.369 416.602,229.367 C428.738,229.372 438.163,237.424 440.086,249.347 C441.952,260.908 433.446,272.832 421.906,274.773 C420.219126,275.077208 418.509944,275.241102 416.796,275.263 C364.878,275.278333 312.959333,275.271333 261.04,275.242 C245.472,275.232 234.253,260.229 238.791,245.671 C240.451,240.345 244.109,236.571 248.111,232.99 C259.612333,222.690667 271.093667,212.37 282.555,202.028 C297.537,188.546 312.606,175.158 327.47,161.547 C341.259,148.92 355.716,137.012 368.742,123.564 C374.629,117.487 379.963,110.839 382.634,102.725 C389.177,82.855 382.119,59.735 358.301,50.334 C347.379487,45.8746818 335.232984,45.420587 324.009,49.052 C309.609,53.621 301.299,63.902 297.809,78.265 C294.961,89.973 285.516,97.82 274.086,97.595 C259.942,97.318 249.144,84.395 252.092,70.647 C257.877,43.671 272.642,23.222 297.407,10.538 C308.54212,4.88403165 320.760016,1.68309979 333.237,1.151 C359.112,-0.149 382.32,6.851 402.115,23.751 C417.799,37.144 426.935,54.343 430.183,74.718 C434.659,102.796 426.342,127.001 408.373,148.473 C398.796,159.917 387.557,169.603 376.549,179.546 C365.792,189.262 354.949,198.88 344.149,208.546 C337.247667,214.725333 330.351667,220.910667 323.461,227.102 C322.832,227.664 322.127,228.14 321.461,228.656 L321.885,229.379 Z" id="Path"></path>
        </g>
    </g>
</svg>