<?xml version="1.0" encoding="UTF-8"?>
<svg width="293px" height="89px" viewBox="0 0 293 89" version="1.1" xmlns="http://www.w3.org/2000/svg" xmlns:xlink="http://www.w3.org/1999/xlink">
    <!-- Generator: Sketch 52.6 (67491) - http://www.bohemiancoding.com/sketch -->
    <title>lucky-logo</title>
    <desc>Created with Sketch.</desc>
    <g id="Page-1" stroke="none" stroke-width="1" fill="none" fill-rule="evenodd">
        <g id="lucky-logo" fill="#FFFFFF">
            <g id="Group" transform="translate(158.000000, 0.000000)">
                <path d="M0.78,2.6 C0.78,2.01 0.98,1.52 1.38,1.12 C1.78,0.72 2.27,0.53 2.84,0.53 C3.41,0.53 3.88,0.73 4.25,1.12 C4.61,1.52 4.8,2.01 4.8,2.6 L4.8,18.75 L14.24,18.75 C14.83,18.75 15.32,18.93 15.72,19.3 C16.12,19.66 16.31,20.13 16.31,20.71 C16.31,21.28 16.11,21.77 15.72,22.17 C15.32,22.57 14.83,22.77 14.24,22.75 L2.76,22.75 C2.65,22.75 2.57,22.74 2.5,22.73 C2,22.65 1.59,22.42 1.27,22.04 C0.94,21.66 0.78,21.21 0.78,20.7 L0.78,2.6 Z" id="Path"></path>
                <path d="M35,0.53 C35.54,0.53 35.99,0.71 36.35,1.06 C36.71,1.42 36.88,1.87 36.88,2.41 C36.88,2.94 36.7,3.38 36.33,3.75 C35.97,4.11 35.52,4.3 34.99,4.3 L24.44,4.32 L24.44,9.91 L31.25,9.91 C31.78,9.91 32.23,10.08 32.6,10.41 C32.97,10.74 33.16,11.18 33.16,11.72 C33.16,12.25 32.97,12.69 32.6,13.05 C32.23,13.41 31.78,13.58 31.25,13.58 L24.44,13.58 L24.44,18.9 L34.9,18.9 C35.43,18.9 35.88,19.09 36.26,19.46 C36.64,19.83 36.83,20.28 36.83,20.81 C36.83,21.09 36.78,21.34 36.68,21.58 C36.58,21.81 36.44,22.02 36.26,22.2 C36.08,22.38 35.88,22.51 35.64,22.61 C35.41,22.7 35.16,22.75 34.9,22.75 L22.37,22.75 C22.09,22.75 21.83,22.7 21.59,22.59 C21.35,22.48 21.14,22.33 20.97,22.15 C20.8,21.96 20.66,21.75 20.56,21.5 C20.46,21.25 20.41,20.99 20.41,20.71 L20.41,2.56 C20.41,2.05 20.56,1.62 20.87,1.26 C21.04,1.04 21.25,0.87 21.49,0.74 C21.73,0.61 22.01,0.54 22.32,0.54 L35,0.54 L35,0.53 Z" id="Path"></path>
                <path d="M46.51,1.76 C46.7,1.33 47,1 47.42,0.78 C47.47,0.73 47.52,0.7 47.58,0.69 C47.77,0.61 47.98,0.56 48.23,0.53 C48.57,0.53 48.9,0.58 49.21,0.69 L49.28,0.74 C49.73,0.96 50.06,1.3 50.26,1.76 L58.19,19.91 C58.31,20.17 58.37,20.44 58.36,20.71 C58.35,20.98 58.3,21.24 58.2,21.48 C58.1,21.72 57.96,21.94 57.77,22.13 C57.58,22.32 57.37,22.48 57.12,22.58 C56.89,22.69 56.62,22.74 56.33,22.74 C55.94,22.74 55.58,22.63 55.24,22.41 C54.9,22.19 54.64,21.88 54.47,21.48 L53.19,18.29 L43.59,18.29 L42.31,21.48 C42.14,21.88 41.89,22.19 41.55,22.41 C41.21,22.63 40.86,22.74 40.47,22.74 C40.16,22.74 39.89,22.69 39.66,22.58 C39.4,22.47 39.17,22.32 38.99,22.13 C38.8,21.94 38.66,21.72 38.56,21.48 C38.46,21.24 38.41,20.98 38.41,20.71 C38.41,20.44 38.46,20.17 38.57,19.91 L46.51,1.76 Z M45.09,14.52 L51.65,14.52 L48.4,5.91 L45.09,14.52 Z" id="Shape" fill-rule="nonzero"></path>
                <path d="M60.24,18.87 C60.02,18.47 59.92,18.09 59.93,17.74 C59.94,17.39 60.02,17.09 60.19,16.83 C60.35,16.57 60.58,16.37 60.86,16.21 C61.15,16.06 61.45,15.98 61.78,15.98 C62.09,15.98 62.4,16.05 62.72,16.2 C63.04,16.35 63.33,16.58 63.59,16.91 C64.12,17.7 64.73,18.28 65.42,18.65 C66.11,19.02 66.99,19.21 68.06,19.21 C68.56,19.21 69.03,19.15 69.49,19.02 C69.95,18.9 70.35,18.71 70.71,18.47 C71.07,18.23 71.35,17.94 71.57,17.59 C71.79,17.24 71.9,16.85 71.9,16.42 C71.9,15.92 71.77,15.5 71.5,15.15 C71.24,14.8 70.9,14.5 70.48,14.26 C70.06,14.01 69.59,13.8 69.07,13.63 C68.55,13.46 68.04,13.3 67.55,13.17 C66.65,12.86 65.78,12.52 64.92,12.16 C64.07,11.8 63.31,11.37 62.65,10.87 C61.99,10.37 61.46,9.79 61.06,9.13 C60.66,8.46 60.46,7.67 60.46,6.76 C60.46,5.78 60.67,4.91 61.1,4.14 C61.53,3.37 62.09,2.72 62.79,2.19 C63.49,1.66 64.29,1.25 65.18,0.97 C66.08,0.69 67,0.55 67.95,0.55 C68.62,0.55 69.29,0.62 69.96,0.75 C70.63,0.88 71.27,1.08 71.87,1.33 C72.47,1.59 73.01,1.91 73.49,2.31 C73.97,2.71 74.35,3.17 74.63,3.69 C74.83,4.09 74.91,4.47 74.85,4.81 C74.8,5.15 74.65,5.45 74.42,5.69 C74.05,6.09 73.6,6.29 73.07,6.29 C72.85,6.29 72.64,6.24 72.42,6.15 C72.09,5.87 71.78,5.6 71.47,5.35 C71.16,5.09 70.84,4.87 70.52,4.69 C70.19,4.5 69.85,4.36 69.47,4.25 C69.1,4.14 68.69,4.09 68.24,4.09 C67.74,4.09 67.27,4.14 66.82,4.23 C66.37,4.32 65.97,4.47 65.63,4.68 C65.29,4.89 65.02,5.16 64.82,5.48 C64.62,5.81 64.52,6.19 64.52,6.64 C64.52,7.07 64.63,7.45 64.85,7.77 C65.07,8.09 65.36,8.37 65.73,8.61 C66.1,8.85 66.54,9.06 67.04,9.25 C67.54,9.44 68.09,9.62 68.68,9.81 C69.63,10.1 70.53,10.42 71.39,10.76 C72.25,11.1 73.01,11.52 73.67,12 C74.33,12.48 74.85,13.08 75.24,13.77 C75.63,14.46 75.82,15.29 75.82,16.27 C75.82,17.18 75.62,18.04 75.23,18.83 C74.83,19.62 74.29,20.31 73.6,20.89 C72.91,21.47 72.09,21.93 71.15,22.26 C70.2,22.59 69.18,22.76 68.08,22.76 C67.34,22.76 66.58,22.68 65.8,22.53 C65.02,22.38 64.28,22.14 63.58,21.83 C62.87,21.52 62.24,21.12 61.66,20.62 C61.07,20.11 60.6,19.53 60.24,18.87 Z" id="Path"></path>
                <path d="M80.28,2.58 C80.28,1.99 80.47,1.5 80.84,1.12 C81.21,0.73 81.68,0.54 82.26,0.54 C82.83,0.54 83.32,0.73 83.71,1.12 C84.11,1.51 84.3,2 84.3,2.58 L84.3,20.7 C84.3,21.27 84.1,21.76 83.7,22.15 C83.3,22.55 82.81,22.74 82.24,22.74 C81.67,22.74 81.2,22.54 80.83,22.15 C80.47,21.75 80.28,21.27 80.28,20.7 L80.28,2.58 Z" id="Path"></path>
                <path d="M90.7,2.6 C90.7,2.03 90.9,1.54 91.3,1.14 C91.7,0.74 92.19,0.54 92.76,0.54 C93.07,0.54 93.37,0.62 93.66,0.77 C93.95,0.92 94.19,1.11 94.39,1.33 L105.69,15.46 L105.69,2.56 C105.69,1.99 105.87,1.5 106.22,1.1 C106.58,0.7 107.05,0.5 107.64,0.5 C108.23,0.5 108.72,0.7 109.1,1.1 C109.49,1.5 109.68,1.99 109.68,2.56 L109.68,20.68 C109.68,21.25 109.48,21.74 109.09,22.14 C108.69,22.54 108.2,22.74 107.61,22.74 C107.15,22.74 106.76,22.62 106.45,22.37 C106.28,22.26 106.12,22.11 105.96,21.91 L94.52,7.72 L94.52,20.68 C94.52,21.25 94.36,21.74 94.04,22.14 C93.72,22.54 93.28,22.74 92.73,22.74 C92.16,22.74 91.67,22.54 91.28,22.14 C90.88,21.74 90.69,21.25 90.69,20.68 L90.69,2.6 L90.7,2.6 Z" id="Path"></path>
                <path d="M133.71,19.63 C132.67,20.61 131.47,21.37 130.11,21.92 C128.75,22.47 127.34,22.75 125.88,22.75 C124.3,22.75 122.82,22.46 121.44,21.89 C120.06,21.32 118.86,20.53 117.84,19.52 C116.82,18.51 116.01,17.31 115.42,15.9 C114.83,14.5 114.54,12.97 114.54,11.33 C114.54,9.83 114.85,8.42 115.47,7.11 C116.09,5.8 116.92,4.66 117.96,3.69 C119,2.72 120.2,1.96 121.58,1.4 C122.95,0.84 124.39,0.56 125.89,0.56 C126.63,0.56 127.38,0.63 128.13,0.77 C128.88,0.91 129.6,1.12 130.29,1.39 C130.98,1.66 131.63,1.99 132.24,2.38 C132.85,2.77 133.4,3.21 133.88,3.71 C134.34,4.19 134.59,4.72 134.6,5.29 C134.61,5.86 134.4,6.35 133.95,6.75 C133.55,7.11 133.1,7.28 132.63,7.28 C132.27,7.28 131.94,7.2 131.63,7.02 L130.19,6.04 C129.48,5.51 128.78,5.14 128.1,4.91 C127.42,4.69 126.64,4.57 125.78,4.57 C124.8,4.57 123.88,4.75 123,5.12 C122.12,5.48 121.36,5.98 120.71,6.61 C120.06,7.24 119.54,7.98 119.16,8.84 C118.78,9.7 118.59,10.63 118.59,11.64 C118.59,12.59 118.77,13.49 119.14,14.35 C119.5,15.21 120.01,15.97 120.65,16.63 C121.29,17.29 122.06,17.81 122.94,18.2 C123.82,18.59 124.78,18.78 125.8,18.78 C126.64,18.78 127.44,18.68 128.19,18.48 C128.95,18.28 129.66,17.91 130.33,17.39 L130.86,16.99 L130.86,14.94 L128.26,14.94 C127.7,14.94 127.23,14.77 126.83,14.44 C126.43,14.11 126.24,13.66 126.24,13.1 C126.24,12.54 126.44,12.09 126.83,11.75 C127.23,11.41 127.7,11.24 128.26,11.24 L132.56,11.24 C133.13,11.24 133.59,11.44 133.94,11.83 C134.29,12.23 134.46,12.69 134.46,13.24 L134.46,17.87 C134.46,17.99 134.45,18.11 134.44,18.21 C134.42,18.31 134.4,18.42 134.37,18.52 C134.35,18.54 134.35,18.55 134.35,18.57 C134.35,18.59 134.34,18.61 134.33,18.64 C134.33,18.66 134.31,18.69 134.28,18.76 C134.14,19.1 133.95,19.38 133.71,19.63 Z" id="Path"></path>
            </g>
            <g id="Group" transform="translate(0.000000, 10.000000)">
                <path d="M0.43,28.22 C0.43,26.73 0.94,25.49 1.96,24.49 C2.98,23.49 4.21,22.99 5.66,22.99 C7.11,22.99 8.29,23.49 9.22,24.49 C10.14,25.49 10.6,26.73 10.6,28.22 L10.6,68.18 L34.46,68.18 C35.95,68.18 37.19,68.64 38.19,69.56 C39.19,70.48 39.69,71.67 39.69,73.12 C39.69,74.57 39.19,75.8 38.19,76.82 C37.19,77.84 35.95,78.33 34.46,78.29 L5.43,78.29 C5.16,78.29 4.94,78.27 4.78,78.23 C3.53,78.03 2.49,77.46 1.67,76.5 C0.85,75.54 0.44,74.41 0.44,73.12 L0.44,28.22 L0.43,28.22 Z" id="Path"></path>
                <path d="M183.38,70.42 C182.17,71.63 180.78,72.73 179.24,73.71 C177.69,74.69 176.05,75.52 174.3,76.21 C172.56,76.9 170.74,77.42 168.86,77.77 C166.98,78.12 165.1,78.3 163.22,78.3 C159.22,78.3 155.48,77.58 151.99,76.13 C148.5,74.68 145.47,72.68 142.88,70.14 C140.29,67.59 138.26,64.55 136.77,61 C135.28,57.45 134.54,53.6 134.54,49.45 C134.54,45.65 135.32,42.09 136.89,38.78 C138.46,35.47 140.55,32.59 143.18,30.14 C145.8,27.69 148.85,25.76 152.32,24.35 C155.79,22.94 159.42,22.23 163.22,22.23 C165.1,22.23 166.99,22.41 168.89,22.76 C170.79,23.11 172.61,23.63 174.36,24.32 C176.1,25.01 177.75,25.84 179.3,26.82 C180.85,27.8 182.23,28.92 183.44,30.17 C184.62,31.38 185.22,32.73 185.26,34.2 C185.3,35.67 184.75,36.89 183.61,37.87 C182.98,38.42 182.38,38.8 181.82,39.02 C181.25,39.24 180.69,39.34 180.15,39.34 C179.33,39.34 178.52,39.13 177.74,38.69 C177.11,38.3 176.5,37.88 175.89,37.43 C175.28,36.98 174.68,36.54 174.1,36.11 C172.3,34.78 170.53,33.83 168.81,33.26 C167.09,32.69 165.13,32.41 162.93,32.41 C160.46,32.41 158.12,32.87 155.91,33.79 C153.7,34.71 151.77,35.96 150.12,37.55 C148.47,39.14 147.17,41.02 146.21,43.19 C145.25,45.36 144.77,47.73 144.77,50.27 C144.77,52.66 145.23,54.93 146.15,57.09 C147.07,59.25 148.33,61.14 149.94,62.76 C151.55,64.39 153.47,65.68 155.7,66.64 C157.93,67.6 160.34,68.08 162.93,68.08 C165.05,68.08 166.97,67.81 168.69,67.26 C170.41,66.71 172.22,65.77 174.1,64.44 C175.35,63.5 176.57,62.64 177.74,61.85 C178.52,61.42 179.33,61.2 180.15,61.2 C180.7,61.2 181.26,61.31 181.82,61.52 C182.39,61.74 182.99,62.12 183.61,62.67 C184.75,63.65 185.29,64.88 185.26,66.37 C185.22,67.86 184.59,69.21 183.38,70.42 Z" id="Path"></path>
                <path d="M196.37,28.05 C196.37,26.64 196.88,25.43 197.9,24.44 C198.92,23.44 200.13,22.94 201.54,22.94 C202.95,22.94 204.14,23.44 205.1,24.44 C206.06,25.44 206.54,26.64 206.54,28.05 L206.54,45.15 L229.52,24.11 C230.54,23.17 231.71,22.7 233.05,22.7 C234.5,22.7 235.75,23.23 236.81,24.29 C237.75,25.39 238.18,26.63 238.1,28.02 C238.02,29.41 237.47,30.58 236.45,31.52 L218.41,48.03 L238.8,69.72 C239.27,70.23 239.62,70.8 239.86,71.42 C240.09,72.05 240.21,72.68 240.21,73.33 C240.21,73.98 240.08,74.61 239.83,75.24 C239.57,75.87 239.19,76.42 238.68,76.89 C238.17,77.36 237.61,77.71 237.01,77.95 C236.4,78.18 235.77,78.3 235.1,78.3 C234.43,78.3 233.79,78.17 233.16,77.92 C232.53,77.67 231.95,77.26 231.4,76.71 L210.89,54.91 L206.54,58.97 L206.54,73.19 C206.54,73.9 206.41,74.56 206.16,75.19 C205.9,75.82 205.55,76.36 205.1,76.81 C204.65,77.26 204.12,77.62 203.51,77.9 C202.9,78.17 202.25,78.31 201.54,78.31 C200.09,78.31 198.87,77.81 197.87,76.81 C196.87,75.81 196.37,74.61 196.37,73.2 L196.37,28.05 Z" id="Path"></path>
                <path d="M263.01,54.61 L245.26,31.1 C244.79,30.55 244.49,29.94 244.35,29.28 C244.21,28.61 244.2,27.95 244.32,27.28 C244.44,26.61 244.67,25.99 245.03,25.4 C245.38,24.81 245.85,24.3 246.44,23.87 C247.3,23.24 248.26,22.93 249.32,22.93 C250.1,22.93 250.88,23.12 251.64,23.49 C252.4,23.86 253.06,24.42 253.61,25.16 L268.36,45.38 L283.23,25.16 C283.78,24.42 284.42,23.86 285.17,23.49 C285.91,23.12 286.68,22.93 287.46,22.93 C288.56,22.93 289.54,23.24 290.4,23.87 C290.99,24.3 291.46,24.82 291.81,25.43 C292.16,26.04 292.4,26.66 292.52,27.31 C292.64,27.96 292.62,28.61 292.46,29.28 C292.3,29.95 292.01,30.55 291.58,31.1 L273.24,55.08 L273.24,73.18 C273.24,74.59 272.74,75.8 271.74,76.79 C270.74,77.78 269.54,78.29 268.13,78.29 C266.72,78.29 265.51,77.79 264.52,76.79 C263.53,75.79 263.02,74.59 263.02,73.18 L263.02,54.61 L263.01,54.61 Z" id="Path"></path>
                <g transform="translate(41.000000, 0.000000)">
                    <path d="M84.17,38.59 C82.43,32.34 76.06,28.71 69.94,30.47 C65.34,31.79 63.31,35.57 61.75,39.76 C59.58,45.58 56.44,51.08 51.47,54.94 C40.47,63.48 22.97,61.81 15.85,49.13 C13.05,44.14 12.49,38.01 13.72,32.48 C14.38,29.52 15.58,26.65 17.35,24.18 C18.87,22.06 21.31,19.8 20.51,16.9 C19.8,14.34 17.19,12.85 14.68,13.57 C12.7,14.14 11.17,16.37 9.86,17.87 C8.18,19.8 6.71,21.91 5.47,24.15 C2.99,28.63 1.45,33.63 1.04,38.74 C-0.36,56.19 11.35,71.75 27.9,76.58 C35.57,78.82 43.91,78.88 51.58,76.62 C64.67,72.76 74.4,62.67 81.42,51.35 C83.71,47.67 85.37,42.91 84.17,38.59 Z" id="Path"></path>
                    <circle id="Oval" transform="translate(81.508438, 13.957974) rotate(-14.790805) translate(-81.508438, -13.957974) " cx="81.508438" cy="13.957974" r="11.1104094"></circle>
                    <path d="M24.24,12.76 C26.9,13.67 29.8,12.26 30.71,9.6 C31.62,6.94 30.21,4.04 27.55,3.13 C24.89,2.22 21.99,3.63 21.08,6.29 C20.16,8.94 21.58,11.84 24.24,12.76 Z" id="Path"></path>
                </g>
            </g>
        </g>
    </g>
</svg>