<?xml version="1.0" encoding="UTF-8"?>
<svg width="402px" height="126px" viewBox="0 0 402 126" version="1.1" xmlns="http://www.w3.org/2000/svg" xmlns:xlink="http://www.w3.org/1999/xlink">
    <!-- Generator: Sketch 52.6 (67491) - http://www.bohemiancoding.com/sketch -->
    <title>SK_horizontal_logo-01</title>
    <desc>Created with Sketch.</desc>
    <g id="Page-1" stroke="none" stroke-width="1" fill="none" fill-rule="evenodd">
        <g id="SK_horizontal_logo-01" fill="#FFFFFF">
            <g id="Group" transform="translate(0.000000, 82.000000)">
                <path d="M42.98,42.82 C42.98,19.57 24.14,0.73 0.89,0.73 C0.89,23.98 19.73,42.82 42.98,42.82 Z" id="Path"></path>
                <path d="M42.98,42.82 C66.23,42.82 85.07,23.98 85.07,0.73 C61.82,0.73 42.98,19.58 42.98,42.82 Z" id="Path"></path>
            </g>
            <g id="Group" transform="translate(9.000000, 48.000000)">
                <path d="M0.25,0.92 C0.25,19.55 15.35,34.65 33.98,34.65 C33.98,16.02 18.88,0.92 0.25,0.92 Z" id="Path"></path>
                <path d="M67.71,0.92 C49.08,0.92 33.98,16.02 33.98,34.65 C52.61,34.65 67.71,19.55 67.71,0.92 Z" id="Path"></path>
            </g>
            <path d="M42.97,1.23 C29.81,14.41 29.82,35.76 42.99,48.93 C56.16,35.75 56.15,14.39 42.97,1.23 Z" id="Path"></path>
            <path d="M218.31,59.76 L209.3,55.98 L208.87,55.8 C203.64,53.66 199.11,51.81 199.11,47.16 C199.11,42.75 202.85,40.01 208.87,40.01 C213.99,40.01 218.45,41.78 222.92,45.58 L223.46,46.03 L230.37,37.49 L229.94,37.05 C224.46,31.51 216.78,28.33 208.87,28.33 C195.7,28.33 185.77,36.72 185.77,47.84 C185.77,58.21 193.34,63.53 199.68,66.17 L208.81,70.13 L209.04,70.23 C214.89,72.71 218.76,74.35 218.76,79.32 C218.76,84.28 214.67,87.25 207.81,87.25 C202.09,87.25 195.77,84.47 190.89,79.83 L190.36,79.33 L182.57,88.5 L183.03,88.95 C189.47,95.29 198.42,98.93 207.56,98.93 C222.08,98.93 232.22,90.49 232.22,78.4 C232.23,69.63 227.8,63.71 218.31,59.76 Z" id="Path"></path>
            <g id="Group" transform="translate(118.000000, 0.000000)">
                <path d="M219.62,59.76 L210.61,55.98 L210.18,55.8 C204.95,53.66 200.42,51.81 200.42,47.16 C200.42,42.75 204.16,40.01 210.18,40.01 C215.3,40.01 219.76,41.78 224.23,45.58 L224.77,46.04 L231.68,37.5 L231.25,37.06 C225.77,31.52 218.09,28.34 210.18,28.34 C197.01,28.34 187.08,36.73 187.08,47.85 C187.08,58.22 194.65,63.54 200.99,66.18 L210.12,70.14 L210.35,70.24 C216.2,72.72 220.07,74.36 220.07,79.33 C220.07,84.29 215.98,87.26 209.12,87.26 C203.41,87.26 197.08,84.48 192.2,79.83 L191.67,79.33 L184.09,88.25 L183.88,88.49 L184.34,88.94 C190.79,95.28 199.73,98.92 208.87,98.92 C223.39,98.92 233.53,90.48 233.53,78.39 C233.54,69.63 229.11,63.71 219.62,59.76 Z" id="Path"></path>
                <path d="M57.93,28.71 L47.98,21.66 L41.23,31.2 C37.66,29.59 33.73,28.69 29.6,28.69 C13.35,28.69 0.14,42.53 0.14,59.53 L0.14,98.69 L12.58,98.69 L12.58,73.68 L31.16,73.68 C31.63,73.68 31.99,73.38 31.99,72.99 L31.99,62.17 C31.99,61.78 31.62,61.48 31.16,61.48 L12.58,61.48 L12.58,59.53 C12.58,49.39 20.22,41.13 29.6,41.13 C38.98,41.13 46.62,49.38 46.62,59.53 L46.62,98.73 L59.06,98.73 L59.06,59.53 C59.06,51.37 56.01,43.95 51.06,38.43 L57.93,28.71 Z" id="Path"></path>
                <path d="M148.55,28.68 C136.41,28.68 125.34,36.69 121,48.61 L120.67,49.53 L120.63,98.72 L133.07,98.72 L133.07,51.92 C135.86,45.37 141.93,41.14 148.55,41.14 C157.93,41.14 165.57,49.39 165.57,59.54 L165.57,98.74 L178.01,98.74 L178.01,59.54 C178.01,42.52 164.79,28.68 148.55,28.68 Z" id="Path"></path>
                <path d="M283.67,28.55 L283.67,28.2 L258.51,28.2 L258.51,40.4 L271.36,40.4 L271.36,69.1 C271.36,73.86 269.45,78.52 266.1,81.94 L244.45,51.02 L234.26,58.16 L262.59,98.61 L262.77,98.86 L267.65,96.2 C277.62,90.77 283.82,80.38 283.82,69.09 L283.82,28.54 L283.67,28.54 L283.67,28.55 Z" id="Path"></path>
                <polygon id="Path" points="213.43 103.11 213.43 115.3 221.34 115.3 221.34 125.13 233.54 125.13 233.54 103.11 228.87 103.11"></polygon>
                <path d="M113.45,0.76 C108.31,1.05 103.92,4.14 101.81,8.54 L100.67,8.54 L99.09,8.54 L67.96,8.54 L67.96,20.52 L114.24,20.52 L114.24,0.71 C113.97,0.71 113.72,0.73 113.46,0.74 C113.45,0.75 113.45,0.75 113.45,0.76 Z" id="Path"></path>
            </g>
        </g>
    </g>
</svg>